<svg version="1.1" id="Layer_1" xmlns="http://www.w3.org/2000/svg" xmlns:xlink="http://www.w3.org/1999/xlink" x="0px" y="0px"
	 width="100%" viewBox="0 0 128 128" enable-background="new 0 0 128 128" xml:space="preserve">
<path fill="#000001" opacity="1.000000" stroke="none" 
	d="
M1.000000,43.000000 
	C1.000000,29.028946 1.000000,15.057892 1.000000,1.043419 
	C43.549469,1.043419 86.098991,1.043419 129.000000,1.043419 
	C129.000000,14.685555 129.000000,28.374119 128.535004,42.531349 
	C123.705933,43.054489 119.341850,43.108955 114.524994,43.089191 
	C110.406670,42.976334 106.741135,42.937710 103.040558,42.441772 
	C103.005508,38.386936 103.005508,34.789413 103.005508,31.162792 
	C94.618210,31.162792 86.817039,31.162792 78.552597,31.091434 
	C70.387581,31.067642 62.685825,31.115211 54.521835,31.087276 
	C46.460144,31.011774 38.860683,31.011774 30.924538,31.011774 
	C30.924538,35.302677 30.924538,39.100788 30.470802,42.944851 
	C26.352062,43.048351 22.687057,43.105896 18.558214,43.091949 
	C12.396249,43.013638 6.698124,43.006817 1.000000,43.000000 
z"/>
<path fill="#FFD0C6" opacity="1.000000" stroke="none" 
	d="
M19.022055,43.163445 
	C22.687057,43.105896 26.352062,43.048351 30.495327,43.418388 
	C30.983721,51.576221 30.993851,59.306477 31.002529,67.491936 
	C30.993330,71.576958 30.985584,75.206764 30.520628,78.910858 
	C26.462538,78.985138 22.861660,78.985138 19.268278,78.985138 
	C19.268278,87.270325 19.268278,94.998055 19.268278,103.132141 
	C23.269415,103.132141 27.017649,103.132141 31.114563,103.132141 
	C31.114563,107.339386 31.114563,111.137733 31.075491,115.403229 
	C31.024279,120.246918 31.012140,124.623459 31.000000,129.000000 
	C21.042252,129.000000 11.084504,129.000000 1.000000,129.000000 
	C1.000000,104.645905 1.000000,80.291611 1.468214,55.468658 
	C7.450108,55.000000 12.963789,55.000000 19.022055,55.000000 
	C19.022055,50.622101 19.022055,46.892773 19.022055,43.163445 
z"/>
<path fill="#FFD0C6" opacity="1.000000" stroke="none" 
	d="
M103.075600,42.899082 
	C106.741135,42.937710 110.406670,42.976334 114.531815,43.541626 
	C114.991417,47.589828 114.991417,51.111366 114.991417,55.000000 
	C120.208389,55.000000 124.604195,55.000000 129.000000,55.000000 
	C129.000000,79.558250 129.000000,104.116493 129.000000,129.000000 
	C120.648590,129.000000 112.292961,129.000000 103.468674,128.534775 
	C102.961792,123.691757 102.923576,119.313957 102.937485,114.476868 
	C102.989609,110.419128 102.989609,106.820702 102.989609,102.831345 
	C107.303459,102.831345 111.046432,102.831345 114.711113,102.831345 
	C114.711113,94.680428 114.711113,86.950684 114.711113,78.836563 
	C110.623840,78.836563 106.822945,78.836563 103.015114,78.386841 
	C103.004120,74.303650 103.000069,70.670189 102.997307,66.565788 
	C103.024261,58.362926 103.049927,50.631004 103.075600,42.899082 
z"/>
<path fill="#FF7F7A" opacity="1.000000" stroke="none" 
	d="
M102.885361,114.936172 
	C102.923576,119.313957 102.961792,123.691757 103.000000,128.534775 
	C79.312439,129.000000 55.624878,129.000000 31.468658,129.000000 
	C31.012140,124.623459 31.024279,120.246918 31.534132,115.430862 
	C55.649685,114.972961 79.267525,114.954567 102.885361,114.936172 
z"/>
<path fill="#FF7F7A" opacity="1.000000" stroke="none" 
	d="
M18.558214,43.091949 
	C19.022055,46.892773 19.022055,50.622101 19.022055,55.000000 
	C12.963789,55.000000 7.450108,55.000000 1.468214,55.000000 
	C1.000000,51.307091 1.000000,47.614182 1.000000,43.460636 
	C6.698124,43.006817 12.396249,43.013638 18.558214,43.091949 
z"/>
<path fill="#FF7F7A" opacity="1.000000" stroke="none" 
	d="
M129.000000,54.539364 
	C124.604195,55.000000 120.208389,55.000000 114.991417,55.000000 
	C114.991417,51.111366 114.991417,47.589828 114.984596,43.615852 
	C119.341850,43.108955 123.705933,43.054489 128.535004,43.000008 
	C129.000000,46.692909 129.000000,50.385818 129.000000,54.539364 
z"/>
<path fill="#FFFAFB" opacity="1.000000" stroke="none" 
	d="
M103.040558,42.441772 
	C103.049927,50.631004 103.024261,58.362926 102.535019,66.551453 
	C98.335670,66.997444 94.599899,66.986832 90.927177,66.511337 
	C90.990234,58.394184 90.990234,50.741898 90.990234,43.135841 
	C86.566689,43.135841 82.795258,43.135841 79.014877,42.669090 
	C79.009239,38.522488 79.012558,34.842640 79.015869,31.162792 
	C86.817039,31.162792 94.618210,31.162792 103.005508,31.162792 
	C103.005508,34.789413 103.005508,38.386936 103.040558,42.441772 
z"/>
<path fill="#FFFAFB" opacity="1.000000" stroke="none" 
	d="
M31.003981,67.036728 
	C30.993851,59.306477 30.983721,51.576221 30.949064,43.372437 
	C30.924538,39.100788 30.924538,35.302677 30.924538,31.011774 
	C38.860683,31.011774 46.460144,31.011774 54.526924,31.539219 
	C54.988235,35.756401 54.982224,39.446140 54.515987,43.072895 
	C50.486149,43.009911 46.916531,43.009911 43.135864,43.009911 
	C43.135864,51.275219 43.135864,59.125702 42.666817,66.985153 
	C38.466503,67.008331 34.735241,67.022530 31.003981,67.036728 
z"/>
<path fill="#FF7F7A" opacity="1.000000" stroke="none" 
	d="
M54.976208,43.135880 
	C54.982224,39.446140 54.988235,35.756401 54.989159,31.614719 
	C62.685825,31.115211 70.387581,31.067642 78.552597,31.091434 
	C79.012558,34.842640 79.009239,38.522488 79.007233,42.627228 
	C79.008553,43.052120 79.091644,43.033695 78.617203,43.022488 
	C70.397964,43.018764 62.653164,43.026253 54.949913,43.042938 
	C54.991463,43.052139 54.976208,43.135880 54.976208,43.135880 
z"/>
<path fill="#000001" opacity="1.000000" stroke="none" 
	d="
M102.937485,114.476868 
	C79.267525,114.954567 55.649685,114.972961 31.573204,114.963715 
	C31.114563,111.137733 31.114563,107.339386 31.114563,103.132141 
	C27.017649,103.132141 23.269415,103.132141 19.268278,103.132141 
	C19.268278,94.998055 19.268278,87.270325 19.268278,78.985138 
	C22.861660,78.985138 26.462538,78.985138 30.976669,78.982185 
	C35.585720,79.007484 39.281521,79.035728 42.981308,79.036667 
	C42.985298,79.009369 42.931149,79.015343 42.961277,79.477798 
	C42.991405,83.538101 42.991405,87.135963 42.991405,90.706207 
	C59.303963,90.706207 75.012642,90.706207 91.068878,90.706207 
	C91.068878,86.615486 91.068878,82.815399 91.039886,79.010750 
	C91.010887,79.006195 91.021637,79.064262 91.480858,79.036217 
	C95.634071,78.950966 99.328064,78.893761 103.022057,78.836563 
	C106.822945,78.836563 110.623840,78.836563 114.711113,78.836563 
	C114.711113,86.950684 114.711113,94.680428 114.711113,102.831345 
	C111.046432,102.831345 107.303459,102.831345 102.989609,102.831345 
	C102.989609,106.820702 102.989609,110.419128 102.937485,114.476868 
z"/>
<path fill="#FF7F7A" opacity="1.000000" stroke="none" 
	d="
M42.977318,79.063972 
	C39.281521,79.035728 35.585720,79.007484 31.433880,78.907906 
	C30.985584,75.206764 30.993330,71.576958 31.002529,67.491936 
	C34.735241,67.022530 38.466503,67.008331 42.624958,66.992798 
	C43.052151,66.991463 43.033752,66.908379 43.022476,67.375519 
	C42.999905,71.583099 42.988609,75.323532 42.977318,79.063972 
z"/>
<path fill="#FF7F7A" opacity="1.000000" stroke="none" 
	d="
M103.015114,78.386833 
	C99.328064,78.893761 95.634071,78.950966 91.474442,78.569344 
	C90.994614,74.389801 90.980431,70.649094 90.957047,66.949928 
	C90.947853,66.991478 90.864120,66.976212 90.864120,66.976212 
	C94.599899,66.986832 98.335670,66.997444 102.533737,67.022400 
	C103.000069,70.670189 103.004120,74.303650 103.015114,78.386833 
z"/>
<path fill="#000001" opacity="1.000000" stroke="none" 
	d="
M79.016190,43.093979 
	C82.795258,43.135841 86.566689,43.135841 90.990234,43.135841 
	C90.990234,50.741898 90.990234,58.394184 90.927177,66.511337 
	C90.864120,66.976212 90.947853,66.991478 90.496895,66.991577 
	C86.443184,66.991684 82.840424,66.991684 79.091644,66.991684 
	C79.091644,58.636921 79.091644,50.835308 79.091644,43.033695 
	C79.091644,43.033695 79.008553,43.052120 79.016190,43.093979 
z"/>
<path fill="#000001" opacity="1.000000" stroke="none" 
	d="
M43.094009,66.983826 
	C43.135864,59.125702 43.135864,51.275219 43.135864,43.009911 
	C46.916531,43.009911 50.486149,43.009911 54.515987,43.072895 
	C54.976208,43.135880 54.991463,43.052139 54.991634,43.507851 
	C54.991806,51.563011 54.991806,59.162460 54.991806,66.908379 
	C50.641529,66.908379 46.837639,66.908379 43.033752,66.908379 
	C43.033752,66.908379 43.052151,66.991463 43.094009,66.983826 
z"/>
<path fill="#FFD0C6" opacity="1.000000" stroke="none" 
	d="
M43.022476,67.375519 
	C46.837639,66.908379 50.641529,66.908379 54.991806,66.908379 
	C54.991806,59.162460 54.991806,51.563011 54.950081,43.498650 
	C62.653164,43.026253 70.397964,43.018764 78.617203,43.022488 
	C79.091644,50.835308 79.091644,58.636921 79.091644,66.991684 
	C82.840424,66.991684 86.443184,66.991684 90.506088,66.950027 
	C90.980431,70.649094 90.994614,74.389801 91.015213,78.597389 
	C91.021637,79.064262 91.010887,79.006195 90.566071,79.006378 
	C74.391220,79.009491 58.661186,79.012413 42.931149,79.015343 
	C42.931149,79.015343 42.985298,79.009369 42.981308,79.036667 
	C42.988609,75.323532 42.999905,71.583099 43.022476,67.375519 
z"/>
<path fill="#FF7F7A" opacity="1.000000" stroke="none" 
	d="
M42.961277,79.477798 
	C58.661186,79.012413 74.391220,79.009491 90.595070,79.010933 
	C91.068878,82.815399 91.068878,86.615486 91.068878,90.706207 
	C75.012642,90.706207 59.303963,90.706207 42.991405,90.706207 
	C42.991405,87.135963 42.991405,83.538101 42.961277,79.477798 
z"/>
</svg>